<?xml version="1.0" encoding="UTF-8"?>
<!DOCTYPE svg PUBLIC "-//W3C//DTD SVG 1.0//EN" "http://www.w3.org/TR/2001/REC-SVG-20010904/DTD/svg10.dtd">
<!-- Creator: CorelDRAW X8 -->
<svg xmlns="http://www.w3.org/2000/svg" xml:space="preserve" width="0.34722in" height="0.34722in" version="1.0" style="shape-rendering:geometricPrecision; text-rendering:geometricPrecision; image-rendering:optimizeQuality; fill-rule:evenodd; clip-rule:evenodd"
viewBox="0 0 347 347"
 xmlns:xlink="http://www.w3.org/1999/xlink">
 <defs>
  <style type="text/css">
   <![CDATA[
    .fil0 {fill:white}
   ]]>
  </style>
 </defs>
 <g id="Layer_x0020_1">
  <metadata id="CorelCorpID_0Corel-Layer"/>
  <g id="musica-searcher.eps">
   <path class="fil0" d="M338 297l-75 -75c-1,0 -1,-1 -1,-1 14,-22 23,-49 23,-78 0,-79 -64,-142 -142,-142 -79,0 -142,63 -142,142 0,78 63,142 142,142 29,0 56,-9 78,-23 0,0 1,0 1,1l75 75c11,11 30,11 41,0 11,-11 11,-30 0,-41zm-195 -61c-51,0 -93,-42 -93,-93 0,-51 42,-93 93,-93 51,0 93,42 93,93 0,51 -42,93 -93,93z"/>
  </g>
 </g>
</svg>
